{"title":"Pecoross Mother and Her Days 2013 BluRay 720p x264 AC3-GDK [Movi","uid":10486877,"size":5443484505,"categoryP":"video","categoryS":"hd___movies","magnet":"?xt=urn:btih:dd489dd448e85fe718e8c3b29e45ceb151e439e3&amp;dn=Pecoross+Mother+and+Her+Days+2013+BluRay+720p+x264+AC3-GDK+%5BMovi&amp;tr=udp%3A%2F%2Ftracker.openbittorrent.com%3A80&amp;tr=udp%3A%2F%2Fopen.demonii.com%3A1337&amp;tr=udp%3A%2F%2Ftracker.coppersurfer.tk%3A6969&amp;tr=udp%3A%2F%2Fexodus.desync.com%3A6969","seeders":3,"leechers":1,"uploader":"divachen","files":1,"time":1404487685,"description":"[img]http://ww2.sinaimg.cn/large/a83bb572jw1ei12ub8m6pj20fs0m8afv.jpg[/img]\n\n[code]\nGeneral\nComplete name : Pecoross.Mother.and.Her.Days.2013.BluRay.720p.x264.AC3-GDK.mkv\nFile size : 5.07 GiB\nDuration : 1h 52mn\nOverall bit rate : 6 437 Kbps\nEncoded date : UTC 2014-07-04 06:18:46\n\nVideo\nID : 1\nFormat : AVC\nFormat/Info : Advanced Video Codec\nFormat profile : &lt;a class=&quot;__cf_email__&quot; href=&quot;/cdn-cgi/l/email-protection&quot; data-cfemail=&quot;ace4c5cbc4ece098829d&quot;&gt;[email&amp;#160;protected]&lt;/a&gt;&lt;script cf-hash='f9e31' type=&quot;text/javascript&quot;&gt;\n/* &lt;![CDATA[ */!function(){try{var t=&quot;currentScript&quot;in document?document.currentScript:function(){for(var t=document.getElementsByTagName(&quot;script&quot;),e=t.length;e--;)if(t[e].getAttribute(&quot;cf-hash&quot;))return t[e]}();if(t&amp;&amp;t.previousSibling){var e,r,n,i,c=t.previousSibling,a=c.getAttribute(&quot;data-cfemail&quot;);if(a){for(e=&quot;&quot;,r=parseInt(a.substr(0,2),16),n=2;a.length-n;n+=2)i=parseInt(a.substr(n,2),16)^r,e+=String.fromCharCode(i);e=document.createTextNode(e),c.parentNode.replaceChild(e,c)}}}catch(u){}}();/* ]]&gt; */&lt;/script&gt;\nFormat settings, CABAC : Yes\nFormat settings, ReFrames : 9 frames\nCodec ID : V_MPEG4/ISO/AVC\nDuration : 1h 52mn\nBit rate : 5 779 Kbps\nWidth : 1 280 pixels\nHeight : 692 pixels\nDisplay aspect ratio : 1.85:1\nFrame rate mode : Constant\nFrame rate : 23.976 fps\nColor space : YUV\nChroma subsampling : 4:2:0\nBit depth : 8 bits\nScan type : Progressive\nBits/(Pixel*Frame) : 0.272\nStream size : 4.46 GiB (88%)\nWriting library : x264 core 138 r2358 9e941d1\nLanguage : Japanese\nDefault : Yes\nForced : No\n\nAudio\nID : 2\nFormat : AC-3\nFormat/Info : Audio Coding 3\nMode extension : CM (complete main)\nFormat settings, Endianness : Big\nCodec ID : A_AC3\nDuration : 1h 52mn\nBit rate mode : Constant\nBit rate : 640 Kbps\nChannel(s) : 6 channels\nChannel positions : Front: L C R, Side: L R, LFE\nSampling rate : 48.0 KHz\nBit depth : 16 bits\nCompression mode : Lossy\nStream size : 516 MiB (10%)\nLanguage : Japanese\nDefault : Yes\nForced : No\n\nText\nID : 3\nFormat : PGS\nMuxing mode : zlib\nCodec ID : S_HDMV/PGS\nCodec ID/Info : The same subtitle format used on BDs/HD-DVDs\nLanguage : Japanese\nDefault : Yes\nForced : No\n\nMenu\n00:00:00.000 : ja:00:00:00.000\n00:06:26.052 : ja:00:06:26.052\n00:18:51.630 : ja:00:18:51.630\n00:27:43.287 : ja:00:27:43.287\n00:36:38.613 : ja:00:36:38.613\n00:48:35.538 : ja:00:48:35.538\n00:57:55.806 : ja:00:57:55.806\n01:09:17.612 : ja:01:09:17.612\n01:19:26.804 : ja:01:19:26.804\n01:27:16.064 : ja:01:27:16.064\n01:35:31.893 : ja:01:35:31.893\n01:46:31.385 : ja:01:46:31.385[/code]\n\n[img]http://ww1.sinaimg.cn/large/a83bb572jw1ei12sbz8x4j20s00urwne.jpg[/img]","torrent":{"xt":"urn:btih:dd489dd448e85fe718e8c3b29e45ceb151e439e3","amp;dn":"Pecoross+Mother+and+Her+Days+2013+BluRay+720p+x264+AC3-GDK+%5BMovi","amp;tr":["udp%3A%2F%2Ftracker.openbittorrent.com%3A80","udp%3A%2F%2Fopen.demonii.com%3A1337","udp%3A%2F%2Ftracker.coppersurfer.tk%3A6969","udp%3A%2F%2Fexodus.desync.com%3A6969"],"infoHash":"dd489dd448e85fe718e8c3b29e45ceb151e439e3","infoHashBuffer":{"type":"Buffer","data":[221,72,157,212,72,232,95,231,24,232,195,178,158,69,206,177,81,228,57,227]},"announce":[],"urlList":[]}}